<svg width="28" height="28" viewBox="0 0 28 28" fill="none" xmlns="http://www.w3.org/2000/svg">
<g clip-path="url(#clip0_1028_405)">
<path d="M11.8614 14.9597V22.2234C11.8615 22.2299 11.8593 22.2363 11.8551 22.2413C11.8509 22.2464 11.845 22.2498 11.8386 22.2509L4.84464 23.4498C4.8397 23.4505 4.83467 23.4499 4.83004 23.448C4.82541 23.4462 4.82137 23.4431 4.81833 23.4392C4.81528 23.4352 4.81335 23.4305 4.81272 23.4256C4.8121 23.4206 4.8128 23.4156 4.81477 23.411L11.8087 7.79168C11.8114 7.78602 11.816 7.78144 11.8217 7.77869C11.8273 7.77594 11.8338 7.77518 11.8399 7.77653C11.8461 7.77788 11.8516 7.78126 11.8556 7.78612C11.8595 7.79099 11.8618 7.79706 11.8619 7.80335L11.8614 14.9597Z" fill="white"/>
<path d="M13.0403 10.7739V22.2539C13.0404 22.2607 13.0429 22.2672 13.0475 22.2723C13.052 22.2774 13.0582 22.2806 13.065 22.2814L23.5412 23.4513C23.5461 23.4518 23.551 23.451 23.5555 23.449C23.56 23.447 23.5639 23.4439 23.5667 23.4399C23.5696 23.436 23.5714 23.4313 23.5719 23.4264C23.5724 23.4215 23.5717 23.4166 23.5697 23.4121L13.0935 0.0148533C13.0908 0.00921738 13.0862 0.00465509 13.0806 0.00189467C13.075 -0.000865737 13.0686 -0.00166514 13.0625 -0.000375926C13.0564 0.000913285 13.0509 0.00421679 13.0468 0.00900728C13.0428 0.0137978 13.0405 0.0197991 13.0403 0.0260533V10.7739Z" fill="white"/>
<path d="M23.461 24.5225L11.8722 27.9991C11.8658 28.0015 11.8587 28.0015 11.8522 27.9991L4.84938 24.5225C4.8435 24.5199 4.8387 24.5154 4.83582 24.5096C4.83294 24.5039 4.83215 24.4973 4.83359 24.4911C4.83503 24.4848 4.8386 24.4793 4.8437 24.4754C4.8488 24.4715 4.8551 24.4695 4.86151 24.4697H23.453C23.4589 24.4707 23.4643 24.4735 23.4685 24.4777C23.4726 24.4819 23.4754 24.4874 23.4762 24.4932C23.4771 24.4991 23.4761 24.5051 23.4734 24.5103C23.4706 24.5156 23.4663 24.5198 23.461 24.5225Z" fill="white"/>
</g>
<defs>
<clipPath id="clip0_1028_405">
<rect width="28" height="28" fill="white"/>
</clipPath>
</defs>
</svg>
